<svg xmlns="http://www.w3.org/2000/svg" width="1440" height="900"><path d="M775,351L955,358L930,146Z" fill="#fa9146" stroke="#fa9146" stroke-width="1.51"/><path d="M930,146L705,134L775,351Z" fill="#fd9d57" stroke="#fd9d57" stroke-width="1.51"/><path d="M955,358L1115,152L930,146Z" fill="#f89049" stroke="#f89049" stroke-width="1.51"/><path d="M943,551L1052,391L955,358Z" fill="#f77c2b" stroke="#f77c2b" stroke-width="1.51"/><path d="M930,146L874,34L705,134Z" fill="#fea564" stroke="#fea564" stroke-width="1.51"/><path d="M1052,391L1115,152L955,358Z" fill="#f5863c" stroke="#f5863c" stroke-width="1.51"/><path d="M930,146L1083,-38L874,34Z" fill="#fda163" stroke="#fda163" stroke-width="1.51"/><path d="M775,351L943,551L955,358Z" fill="#f98434" stroke="#f98434" stroke-width="1.51"/><path d="M705,134L589,402L775,351Z" fill="#fd9d53" stroke="#fd9d53" stroke-width="1.51"/><path d="M775,351L685,560L943,551Z" fill="#fa8433" stroke="#fa8433" stroke-width="1.51"/><path d="M705,134L476,147L589,402Z" fill="#feaa66" stroke="#feaa66" stroke-width="1.51"/><path d="M874,34L778,-66L705,134Z" fill="#ffae70" stroke="#ffae70" stroke-width="1.51"/><path d="M1043,-190L778,-66L874,34Z" fill="#ffac76" stroke="#ffac76" stroke-width="1.51"/><path d="M943,551L1064,544L1052,391Z" fill="#f47423" stroke="#f47423" stroke-width="1.51"/><path d="M1052,391L1231,380L1115,152Z" fill="#f18039" stroke="#f18039" stroke-width="1.51"/><path d="M589,402L685,560L775,351Z" fill="#fd9141" stroke="#fd9141" stroke-width="1.51"/><path d="M1115,152L1083,-38L930,146Z" fill="#f8995b" stroke="#f8995b" stroke-width="1.51"/><path d="M1064,544L1231,380L1052,391Z" fill="#f17427" stroke="#f17427" stroke-width="1.51"/><path d="M1115,152L1277,157L1083,-38Z" fill="#f49257" stroke="#f49257" stroke-width="1.51"/><path d="M778,-66L572,-4L705,134Z" fill="#ffb57a" stroke="#ffb57a" stroke-width="1.51"/><path d="M572,-4L476,147L705,134Z" fill="#ffb77b" stroke="#ffb77b" stroke-width="1.51"/><path d="M1231,380L1277,157L1115,152Z" fill="#ef8241" stroke="#ef8241" stroke-width="1.51"/><path d="M589,402L500,481L685,560Z" fill="#fd9345" stroke="#fd9345" stroke-width="1.51"/><path d="M348,365L500,481L589,402Z" fill="#fda057" stroke="#fda057" stroke-width="1.51"/><path d="M685,560L959,681L943,551Z" fill="#f67522" stroke="#f67522" stroke-width="1.51"/><path d="M943,551L959,681L1064,544Z" fill="#f26d18" stroke="#f26d18" stroke-width="1.51"/><path d="M1064,544L1252,592L1231,380Z" fill="#ec691d" stroke="#ec691d" stroke-width="1.51"/><path d="M681,726L959,681L685,560Z" fill="#f57524" stroke="#f57524" stroke-width="1.51"/><path d="M1083,-38L1043,-190L874,34Z" fill="#fda56f" stroke="#fda56f" stroke-width="1.51"/><path d="M778,-66L556,-165L572,-4Z" fill="#ffbe8a" stroke="#ffbe8a" stroke-width="1.51"/><path d="M1217,-218L1043,-190L1083,-38Z" fill="#faa273" stroke="#faa273" stroke-width="1.51"/><path d="M594,783L681,726L685,560Z" fill="#f47b2e" stroke="#f47b2e" stroke-width="1.51"/><path d="M1099,717L1252,592L1064,544Z" fill="#ea6010" stroke="#ea6010" stroke-width="1.51"/><path d="M1231,380L1436,388L1277,157Z" fill="#e37634" stroke="#e37634" stroke-width="1.51"/><path d="M1109,880L1099,717L959,681Z" fill="#e55909" stroke="#e55909" stroke-width="1.51"/><path d="M959,681L1099,717L1064,544Z" fill="#ed6410" stroke="#ed6410" stroke-width="1.51"/><path d="M344,-2L336,176L476,147Z" fill="#fec28b" stroke="#fec28b" stroke-width="1.51"/><path d="M912,-256L678,-217L778,-66Z" fill="#ffb886" stroke="#ffb886" stroke-width="1.51"/><path d="M1043,-190L912,-256L778,-66Z" fill="#ffaf7e" stroke="#ffaf7e" stroke-width="1.51"/><path d="M678,-217L556,-165L778,-66Z" fill="#ffbf8d" stroke="#ffbf8d" stroke-width="1.51"/><path d="M500,481L594,783L685,560Z" fill="#f98739" stroke="#f98739" stroke-width="1.51"/><path d="M476,147L348,365L589,402Z" fill="#fdaa66" stroke="#fdaa66" stroke-width="1.51"/><path d="M336,176L348,365L476,147Z" fill="#feb779" stroke="#feb779" stroke-width="1.51"/><path d="M344,-2L476,147L572,-4Z" fill="#fec18b" stroke="#fec18b" stroke-width="1.51"/><path d="M1043,-190L1217,-218L912,-256Z" fill="#fea97a" stroke="#fea97a" stroke-width="1.51"/><path d="M1277,157L1333,-68L1083,-38Z" fill="#f2935e" stroke="#f2935e" stroke-width="1.51"/><path d="M1444,164L1333,-68L1277,157Z" fill="#e38954" stroke="#e38954" stroke-width="1.51"/><path d="M348,365L395,577L500,481Z" fill="#fe9f57" stroke="#fe9f57" stroke-width="1.51"/><path d="M1408,563L1436,388L1231,380Z" fill="#de6722" stroke="#de6722" stroke-width="1.51"/><path d="M1436,388L1444,164L1277,157Z" fill="#dd793e" stroke="#dd793e" stroke-width="1.51"/><path d="M556,-165L344,-2L572,-4Z" fill="#ffc595" stroke="#ffc595" stroke-width="1.51"/><path d="M395,577L594,783L500,481Z" fill="#f98c42" stroke="#f98c42" stroke-width="1.51"/><path d="M681,726L904,901L959,681Z" fill="#eb6719" stroke="#eb6719" stroke-width="1.51"/><path d="M1333,-68L1217,-218L1083,-38Z" fill="#f69b6d" stroke="#f69b6d" stroke-width="1.51"/><path d="M1396,730L1408,563L1252,592Z" fill="#d8550b" stroke="#d8550b" stroke-width="1.51"/><path d="M1252,592L1408,563L1231,380Z" fill="#e2631b" stroke="#e2631b" stroke-width="1.51"/><path d="M676,916L904,901L681,726Z" fill="#e7681f" stroke="#e7681f" stroke-width="1.51"/><path d="M1099,717L1291,746L1252,592Z" fill="#e25508" stroke="#e25508" stroke-width="1.51"/><path d="M1109,880L1291,746L1099,717Z" fill="#de5004" stroke="#de5004" stroke-width="1.51"/><path d="M904,901L1109,880L959,681Z" fill="#e45809" stroke="#e45809" stroke-width="1.51"/><path d="M594,783L676,916L681,726Z" fill="#ec722a" stroke="#ec722a" stroke-width="1.51"/><path d="M558,965L676,916L594,783Z" fill="#e2702c" stroke="#e2702c" stroke-width="1.51"/><path d="M395,577L398,769L594,783Z" fill="#f48740" stroke="#f48740" stroke-width="1.51"/><path d="M207,786L398,769L395,577Z" fill="#f6904e" stroke="#f6904e" stroke-width="1.51"/><path d="M556,-165L321,-176L344,-2Z" fill="#ffcea4" stroke="#ffcea4" stroke-width="1.51"/><path d="M127,207L348,365L336,176Z" fill="#febd83" stroke="#febd83" stroke-width="1.51"/><path d="M678,-217L321,-176L556,-165Z" fill="#ffca9e" stroke="#ffca9e" stroke-width="1.51"/><path d="M175,-221L321,-176L678,-217Z" fill="#ffd3ac" stroke="#ffd3ac" stroke-width="1.51"/><path d="M1444,164L1492,-59L1333,-68Z" fill="#dd8a5b" stroke="#dd8a5b" stroke-width="1.51"/><path d="M1333,-68L1437,-170L1217,-218Z" fill="#ea976e" stroke="#ea976e" stroke-width="1.51"/><path d="M1631,-20L1492,-59L1444,164Z" fill="#d38558" stroke="#d38558" stroke-width="1.51"/><path d="M1300,853L1396,730L1291,746Z" fill="#d14803" stroke="#d14803" stroke-width="1.51"/><path d="M1291,746L1396,730L1252,592Z" fill="#d85107" stroke="#d85107" stroke-width="1.51"/><path d="M1627,566L1653,359L1436,388Z" fill="#ca5f21" stroke="#ca5f21" stroke-width="1.51"/><path d="M1436,388L1653,359L1444,164Z" fill="#d06e33" stroke="#d06e33" stroke-width="1.51"/><path d="M1492,-59L1437,-170L1333,-68Z" fill="#e09168" stroke="#e09168" stroke-width="1.51"/><path d="M1109,880L1300,853L1291,746Z" fill="#d74801" stroke="#d74801" stroke-width="1.51"/><path d="M348,365L128,484L395,577Z" fill="#ffa765" stroke="#ffa765" stroke-width="1.51"/><path d="M127,207L145,384L348,365Z" fill="#febb80" stroke="#febb80" stroke-width="1.51"/><path d="M127,207L336,176L176,-57Z" fill="#fdcd9e" stroke="#fdcd9e" stroke-width="1.51"/><path d="M176,-57L336,176L344,-2Z" fill="#fecd9f" stroke="#fecd9f" stroke-width="1.51"/><path d="M321,-176L176,-57L344,-2Z" fill="#ffd5ad" stroke="#ffd5ad" stroke-width="1.51"/><path d="M385,905L558,965L594,783Z" fill="#e47636" stroke="#e47636" stroke-width="1.51"/><path d="M676,916L889,1052L904,901Z" fill="#d55d19" stroke="#d55d19" stroke-width="1.51"/><path d="M904,901L1049,1065L1109,880Z" fill="#d14f09" stroke="#d14f09" stroke-width="1.51"/><path d="M1109,880L1216,1142L1300,853Z" fill="#c64203" stroke="#c64203" stroke-width="1.51"/><path d="M145,384L128,484L348,365Z" fill="#ffb375" stroke="#ffb375" stroke-width="1.51"/><path d="M398,769L385,905L594,783Z" fill="#ed7e3c" stroke="#ed7e3c" stroke-width="1.51"/><path d="M-9,338L128,484L145,384Z" fill="#ffb981" stroke="#ffb981" stroke-width="1.51"/><path d="M1627,566L1436,388L1408,563Z" fill="#ce5b1a" stroke="#ce5b1a" stroke-width="1.51"/><path d="M714,1110L889,1052L676,916Z" fill="#ce5e1d" stroke="#ce5e1d" stroke-width="1.51"/><path d="M207,786L385,905L398,769Z" fill="#ef874a" stroke="#ef874a" stroke-width="1.51"/><path d="M1492,-59L1588,-161L1437,-170Z" fill="#d78e69" stroke="#d78e69" stroke-width="1.51"/><path d="M1653,359L1665,137L1444,164Z" fill="#cb733e" stroke="#cb733e" stroke-width="1.51"/><path d="M1665,137L1631,-20L1444,164Z" fill="#cd7f50" stroke="#cd7f50" stroke-width="1.51"/><path d="M1639,691L1408,563L1396,730Z" fill="#c94d08" stroke="#c94d08" stroke-width="1.51"/><path d="M1639,691L1627,566L1408,563Z" fill="#c6500e" stroke="#c6500e" stroke-width="1.51"/><path d="M889,1052L1049,1065L904,901Z" fill="#cb510d" stroke="#cb510d" stroke-width="1.51"/><path d="M1631,-20L1588,-161L1492,-59Z" fill="#d18964" stroke="#d18964" stroke-width="1.51"/><path d="M1437,-170L1588,-161L1217,-218Z" fill="#e2956f" stroke="#e2956f" stroke-width="1.51"/><path d="M321,-176L175,-221L176,-57Z" fill="#fedcbb" stroke="#fedcbb" stroke-width="1.51"/><path d="M176,-57L14,193L127,207Z" fill="#fed1a6" stroke="#fed1a6" stroke-width="1.51"/><path d="M912,-256L175,-221L678,-217Z" fill="#ffc79b" stroke="#ffc79b" stroke-width="1.51"/><path d="M128,484L207,786L395,577Z" fill="#fc9e5d" stroke="#fc9e5d" stroke-width="1.51"/><path d="M314,1047L558,965L385,905Z" fill="#d7773e" stroke="#d7773e" stroke-width="1.51"/><path d="M314,1047L569,1056L558,965Z" fill="#d07137" stroke="#d07137" stroke-width="1.51"/><path d="M558,965L569,1056L676,916Z" fill="#d56b2c" stroke="#d56b2c" stroke-width="1.51"/><path d="M889,1052L714,1110L1049,1065Z" fill="#c55313" stroke="#c55313" stroke-width="1.51"/><path d="M127,207L-9,338L145,384Z" fill="#ffc08c" stroke="#ffc08c" stroke-width="1.51"/><path d="M128,484L-10,533L207,786Z" fill="#fea66a" stroke="#fea66a" stroke-width="1.51"/><path d="M-61,-50L14,193L176,-57Z" fill="#fedab7" stroke="#fedab7" stroke-width="1.51"/><path d="M569,1056L714,1110L676,916Z" fill="#cf6527" stroke="#cf6527" stroke-width="1.51"/><path d="M1300,853L1484,877L1396,730Z" fill="#c84202" stroke="#c84202" stroke-width="1.51"/><path d="M1508,1093L1484,877L1300,853Z" fill="#b33a03" stroke="#b33a03" stroke-width="1.51"/><path d="M14,193L-9,338L127,207Z" fill="#ffc898" stroke="#ffc898" stroke-width="1.51"/><path d="M1627,566L1639,691L1653,359Z" fill="#c15316" stroke="#c15316" stroke-width="1.51"/><path d="M1653,359L1639,691L1665,137Z" fill="#c36126" stroke="#c36126" stroke-width="1.51"/><path d="M1484,877L1639,691L1396,730Z" fill="#c14304" stroke="#c14304" stroke-width="1.51"/><path d="M-9,338L-10,533L128,484Z" fill="#ffb67f" stroke="#ffb67f" stroke-width="1.51"/><path d="M714,1110L1216,1142L1049,1065Z" fill="#be4a0a" stroke="#be4a0a" stroke-width="1.51"/><path d="M1049,1065L1216,1142L1109,880Z" fill="#c14505" stroke="#c14505" stroke-width="1.51"/><path d="M569,1056L314,1047L714,1110Z" fill="#ca6b32" stroke="#ca6b32" stroke-width="1.51"/><path d="M140,957L314,1047L385,905Z" fill="#da814d" stroke="#da814d" stroke-width="1.51"/><path d="M140,957L385,905L207,786Z" fill="#e78952" stroke="#e78952" stroke-width="1.51"/><path d="M1508,1093L1603,897L1484,877Z" fill="#a83703" stroke="#a83703" stroke-width="1.51"/><path d="M1484,877L1603,897L1639,691Z" fill="#b73c03" stroke="#b73c03" stroke-width="1.51"/><path d="M14,193L-157,234L-9,338Z" fill="#ffcb9e" stroke="#ffcb9e" stroke-width="1.51"/><path d="M-9,338L-154,551L-10,533Z" fill="#ffb884" stroke="#ffb884" stroke-width="1.51"/><path d="M-20,-243L-61,-50L176,-57Z" fill="#fee3c8" stroke="#fee3c8" stroke-width="1.51"/><path d="M25,896L140,957L207,786Z" fill="#e98f5d" stroke="#e98f5d" stroke-width="1.51"/><path d="M912,-256L-20,-243L175,-221Z" fill="#ffd7b3" stroke="#ffd7b3" stroke-width="1.51"/><path d="M175,-221L-20,-243L176,-57Z" fill="#ffe2c6" stroke="#ffe2c6" stroke-width="1.51"/><path d="M-238,321L-157,234L-214,21Z" fill="#ffd6b1" stroke="#ffd6b1" stroke-width="1.51"/><path d="M-214,21L-157,234L14,193Z" fill="#ffd7b2" stroke="#ffd7b2" stroke-width="1.51"/><path d="M-10,533L-44,760L207,786Z" fill="#fba06a" stroke="#fba06a" stroke-width="1.51"/><path d="M-154,551L-44,760L-10,533Z" fill="#ffac77" stroke="#ffac77" stroke-width="1.51"/><path d="M1216,1142L1508,1093L1300,853Z" fill="#b13a03" stroke="#b13a03" stroke-width="1.51"/><path d="M-44,760L25,896L207,786Z" fill="#f49663" stroke="#f49663" stroke-width="1.51"/><path d="M-44,760L-154,883L25,896Z" fill="#f1986c" stroke="#f1986c" stroke-width="1.51"/><path d="M-238,321L-154,551L-9,338Z" fill="#ffc190" stroke="#ffc190" stroke-width="1.51"/><path d="M-53,1109L150,1089L140,957Z" fill="#d2875d" stroke="#d2875d" stroke-width="1.51"/><path d="M140,957L150,1089L314,1047Z" fill="#d38353" stroke="#d38353" stroke-width="1.51"/><path d="M314,1047L150,1089L714,1110Z" fill="#cb743f" stroke="#cb743f" stroke-width="1.51"/><path d="M714,1110L-53,1109L1216,1142Z" fill="#c56228" stroke="#c56228" stroke-width="1.51"/><path d="M1508,1093L1624,1058L1603,897Z" fill="#9d3204" stroke="#9d3204" stroke-width="1.51"/><path d="M1603,897L1624,1058L1639,691Z" fill="#ab3803" stroke="#ab3803" stroke-width="1.51"/><path d="M1639,691L1624,1058L1665,137Z" fill="#be4a0b" stroke="#be4a0b" stroke-width="1.51"/><path d="M-214,21L14,193L-61,-50Z" fill="#fedebd" stroke="#fedebd" stroke-width="1.51"/><path d="M-157,234L-238,321L-9,338Z" fill="#ffca9d" stroke="#ffca9d" stroke-width="1.51"/><path d="M-207,-243L-214,21L-61,-50Z" fill="#ffe9d3" stroke="#ffe9d3" stroke-width="1.51"/><path d="M-238,321L-220,689L-154,551Z" fill="#ffb888" stroke="#ffb888" stroke-width="1.51"/><path d="M-154,551L-220,689L-44,760Z" fill="#ffa978" stroke="#ffa978" stroke-width="1.51"/><path d="M25,896L-53,1109L140,957Z" fill="#da8c61" stroke="#da8c61" stroke-width="1.51"/><path d="M-20,-243L-207,-243L-61,-50Z" fill="#ffead7" stroke="#ffead7" stroke-width="1.51"/><path d="M-214,21L-207,-243L-238,321Z" fill="#ffe3c7" stroke="#ffe3c7" stroke-width="1.51"/><path d="M912,-256L-207,-243L-20,-243Z" fill="#ffe0c2" stroke="#ffe0c2" stroke-width="1.51"/><path d="M-220,689L-154,883L-44,760Z" fill="#f8a073" stroke="#f8a073" stroke-width="1.51"/><path d="M-154,883L-53,1109L25,896Z" fill="#df9169" stroke="#df9169" stroke-width="1.51"/><path d="M150,1089L-53,1109L714,1110Z" fill="#ca7b4c" stroke="#ca7b4c" stroke-width="1.51"/><path d="M-220,689L-192,1080L-154,883Z" fill="#ed9a72" stroke="#ed9a72" stroke-width="1.51"/><path d="M-154,883L-192,1080L-53,1109Z" fill="#d88f6c" stroke="#d88f6c" stroke-width="1.51"/></svg>